<svg width="30" height="33" viewBox="0 0 30 33" fill="none" xmlns="http://www.w3.org/2000/svg">
<path d="M11.808 23C11.624 23 11.472 22.944 11.352 22.832C11.232 22.712 11.172 22.564 11.172 22.388V15.956L11.328 16.172L10.212 16.952C10.116 17.032 10 17.072 9.864 17.072C9.704 17.072 9.56 17.012 9.432 16.892C9.312 16.764 9.252 16.616 9.252 16.448C9.252 16.24 9.356 16.068 9.564 15.932L11.388 14.72C11.46 14.672 11.536 14.64 11.616 14.624C11.704 14.608 11.784 14.6 11.856 14.6C12.04 14.6 12.188 14.66 12.3 14.78C12.412 14.892 12.468 15.036 12.468 15.212V22.388C12.468 22.564 12.404 22.712 12.276 22.832C12.156 22.944 12 23 11.808 23ZM16.4618 23.084C16.1498 23.084 15.8258 23.036 15.4898 22.94C15.1618 22.844 14.8818 22.7 14.6498 22.508C14.5618 22.436 14.4938 22.344 14.4458 22.232C14.3978 22.12 14.3738 22.012 14.3738 21.908C14.3738 21.796 14.4218 21.688 14.5178 21.584C14.6218 21.472 14.7618 21.416 14.9378 21.416C15.0658 21.416 15.2138 21.48 15.3818 21.608C15.5418 21.712 15.7098 21.8 15.8858 21.872C16.0698 21.944 16.2578 21.98 16.4498 21.98C16.8658 21.98 17.2258 21.904 17.5298 21.752C17.8338 21.6 18.0658 21.388 18.2258 21.116C18.3938 20.836 18.4778 20.512 18.4778 20.144C18.4778 19.8 18.4018 19.508 18.2498 19.268C18.0978 19.02 17.8898 18.828 17.6258 18.692C17.3698 18.556 17.0818 18.488 16.7617 18.488C16.4978 18.488 16.2658 18.532 16.0658 18.62C15.8658 18.7 15.6858 18.784 15.5258 18.872C15.3658 18.952 15.2178 18.992 15.0818 18.992C14.8738 18.992 14.7178 18.948 14.6138 18.86C14.5098 18.764 14.4418 18.652 14.4098 18.524C14.3858 18.388 14.3818 18.264 14.3978 18.152L14.8178 15.14C14.8418 15.004 14.9058 14.892 15.0098 14.804C15.1218 14.708 15.2578 14.66 15.4178 14.66H18.9338C19.0938 14.66 19.2258 14.716 19.3298 14.828C19.4418 14.932 19.4978 15.064 19.4978 15.224C19.4978 15.384 19.4418 15.516 19.3298 15.62C19.2258 15.724 19.0938 15.776 18.9338 15.776H15.7178L15.8498 15.668L15.4658 18.248L15.2858 17.888C15.3578 17.808 15.4778 17.732 15.6458 17.66C15.8218 17.58 16.0178 17.516 16.2338 17.468C16.4578 17.412 16.6818 17.384 16.9058 17.384C17.4338 17.384 17.9058 17.504 18.3218 17.744C18.7458 17.976 19.0778 18.3 19.3178 18.716C19.5578 19.132 19.6778 19.604 19.6778 20.132C19.6778 20.724 19.5458 21.244 19.2818 21.692C19.0178 22.132 18.6458 22.476 18.1658 22.724C17.6858 22.964 17.1178 23.084 16.4618 23.084Z" fill="#898D9E"/>
<path d="M26.1901 8.98601C25.8009 8.50619 25.0983 8.4284 24.6136 8.81146C24.1289 9.19453 24.0422 9.89609 24.4191 10.3856C26.1578 12.5719 27.0995 15.2854 27.0891 18.0788C27.0906 24.7461 21.8258 30.2242 15.1637 30.4875C8.50159 30.7508 2.82095 25.7052 2.2963 19.0585C1.77165 12.4119 6.59031 6.53753 13.2112 5.7523L11.6824 7.06328C11.2278 7.47307 11.1826 8.17055 11.5805 8.63557C11.9785 9.10059 12.6746 9.16367 13.1497 8.77777L17.1001 5.39169C17.3505 5.17725 17.4946 4.86408 17.4946 4.53444C17.4946 4.2048 17.3505 3.89163 17.1001 3.6772L13.1497 0.291116C12.845 0.0165099 12.4154 -0.0712089 12.0275 0.0619977C11.6395 0.195204 11.3544 0.528368 11.2827 0.93221C11.211 1.33605 11.364 1.747 11.6824 2.0056L13.3862 3.46557C5.47994 4.16187 -0.439489 11.0187 0.0256298 18.9419C0.490748 26.8651 7.17179 32.9822 15.1052 32.7487C23.0386 32.5152 29.3482 26.0156 29.3465 18.0788C29.3585 14.7772 28.2452 11.57 26.1901 8.98601Z" fill="#898D9E"/>
<path d="M18.8953 8.65451C19.0901 8.88195 19.3673 9.02264 19.6659 9.04561C19.9645 9.06858 20.26 8.97194 20.4873 8.77697L24.4377 5.39089C24.6881 5.17646 24.8322 4.86329 24.8322 4.53365C24.8322 4.20401 24.6881 3.89084 24.4377 3.6764L20.4873 0.290323C20.1826 0.0157164 19.753 -0.0720023 19.3651 0.0612042C18.9771 0.194411 18.692 0.527574 18.6203 0.931417C18.5486 1.33526 18.7016 1.74621 19.02 2.00481L21.9687 4.53478L19.0189 7.06362C18.5456 7.4689 18.4903 8.181 18.8953 8.65451Z" fill="#898D9E"/>
</svg>
