<svg width="24" height="26" viewBox="0 0 24 26" fill="none" xmlns="http://www.w3.org/2000/svg">
<path d="M23.4791 6.40788C23.33 3.92897 21.2601 1.98687 18.767 1.98687H17.5533V1.04343C17.5533 0.522641 17.1306 0.0999756 16.6098 0.0999756C16.089 0.0999756 15.6664 0.522641 15.6664 1.04343V1.98687H8.11878V1.04343C8.11878 0.522641 7.69612 0.0999756 7.17533 0.0999756C6.65455 0.0999756 6.23188 0.522641 6.23188 1.04343V1.98687H5.01814C2.5246 1.98687 0.45467 3.92897 0.306076 6.40788C0.0263436 11.0704 0.0315326 15.7999 0.321643 20.4648C0.468821 22.8338 2.36657 24.7316 4.73557 24.8787C7.10976 25.0264 9.50094 25.1 11.8921 25.1C14.2828 25.1 16.6745 25.0264 19.0486 24.8787C21.4176 24.7316 23.3154 22.8338 23.4626 20.4648C23.7532 15.8023 23.7583 11.0732 23.4791 6.40788ZM21.5799 20.3478C21.4912 21.7691 20.353 22.9074 18.9321 22.9956C14.2611 23.2857 9.52405 23.2857 4.85303 22.9956C3.43172 22.9069 2.29345 21.7687 2.20524 20.3478C1.98211 16.7613 1.93636 13.137 2.0557 9.53447H21.7299C21.8488 13.1384 21.803 16.7627 21.5799 20.3478ZM7.17533 5.76067C7.69612 5.76067 8.11878 5.33801 8.11878 4.81722V3.87377H15.6664V4.81722C15.6664 5.33801 16.089 5.76067 16.6098 5.76067C17.1306 5.76067 17.5533 5.33801 17.5533 4.81722V3.87377H18.767C20.2638 3.87377 21.5063 5.03658 21.5955 6.52062C21.6177 6.89517 21.6271 7.27208 21.6455 7.64757H2.13967C2.15854 7.27208 2.1675 6.89517 2.18967 6.52062C2.27883 5.03658 3.52088 3.87377 5.01814 3.87377H6.23188V4.81722C6.23188 5.33801 6.65455 5.76067 7.17533 5.76067Z" fill="#0177C8" stroke="white" stroke-width="0.2"/>
<path d="M7.17543 15.1952C7.95701 15.1952 8.5906 14.5616 8.5906 13.78C8.5906 12.9985 7.95701 12.3649 7.17543 12.3649C6.39385 12.3649 5.76025 12.9985 5.76025 13.78C5.76025 14.5616 6.39385 15.1952 7.17543 15.1952Z" fill="#0177C8" stroke="white" stroke-width="0.2"/>
<path d="M11.8927 15.1952C12.6743 15.1952 13.3079 14.5616 13.3079 13.78C13.3079 12.9985 12.6743 12.3649 11.8927 12.3649C11.1111 12.3649 10.4775 12.9985 10.4775 13.78C10.4775 14.5616 11.1111 15.1952 11.8927 15.1952Z" fill="#0177C8" stroke="white" stroke-width="0.2"/>
<path d="M7.17543 19.9124C7.95701 19.9124 8.5906 19.2788 8.5906 18.4972C8.5906 17.7156 7.95701 17.082 7.17543 17.082C6.39385 17.082 5.76025 17.7156 5.76025 18.4972C5.76025 19.2788 6.39385 19.9124 7.17543 19.9124Z" fill="#0177C8" stroke="white" stroke-width="0.2"/>
<path d="M16.6098 15.1952C17.3913 15.1952 18.0249 14.5616 18.0249 13.78C18.0249 12.9985 17.3913 12.3649 16.6098 12.3649C15.8282 12.3649 15.1946 12.9985 15.1946 13.78C15.1946 14.5616 15.8282 15.1952 16.6098 15.1952Z" fill="#0177C8" stroke="white" stroke-width="0.2"/>
<path d="M16.6098 19.9124C17.3913 19.9124 18.0249 19.2788 18.0249 18.4972C18.0249 17.7156 17.3913 17.082 16.6098 17.082C15.8282 17.082 15.1946 17.7156 15.1946 18.4972C15.1946 19.2788 15.8282 19.9124 16.6098 19.9124Z" fill="#0177C8" stroke="white" stroke-width="0.2"/>
<path d="M11.8927 19.9124C12.6743 19.9124 13.3079 19.2788 13.3079 18.4972C13.3079 17.7156 12.6743 17.082 11.8927 17.082C11.1111 17.082 10.4775 17.7156 10.4775 18.4972C10.4775 19.2788 11.1111 19.9124 11.8927 19.9124Z" fill="#0177C8" stroke="white" stroke-width="0.2"/>
</svg>
