<svg width="14" height="16" viewBox="0 0 14 16" fill="none" xmlns="http://www.w3.org/2000/svg">
<path d="M11.4186 9.02999C11.5669 9.3723 11.6532 9.79118 11.6722 10.2756C12.1727 10.3902 12.5473 10.8379 12.5473 11.3725C12.5473 11.9934 12.0421 12.4985 11.4212 12.4985C10.8003 12.4985 10.2952 11.9934 10.2952 11.3725C10.2952 10.8439 10.6616 10.401 11.1532 10.2799C11.1316 9.79881 11.0165 9.06689 10.5457 8.70552C10.3054 8.64333 10.0584 8.59829 9.80494 8.57507C9.78623 9.41786 7.00061 11.4977 7.00061 11.4977C7.00061 11.4977 4.21412 9.41821 4.19524 8.57542C3.91373 8.60106 3.63984 8.65251 3.37531 8.72665C3.03179 8.99863 2.85405 9.50535 2.84487 10.2419C2.94586 10.3 3.02746 10.3906 3.07752 10.5002C3.44755 10.675 3.77445 11.0426 4.02477 11.566C4.0667 11.654 4.07224 11.7534 4.0414 11.8442C4.19143 12.2303 4.27718 12.6523 4.27718 13.0068C4.27718 13.5034 4.27718 13.9731 3.73582 14.0937C3.67726 14.1423 3.60381 14.1692 3.52672 14.1692H3.16501C2.98363 14.1692 2.83603 14.0212 2.83603 13.8404L2.83638 13.8276C2.84331 13.6526 2.98969 13.5114 3.16501 13.5114H3.52672C3.56379 13.5114 3.6 13.5176 3.63499 13.5298C3.65682 13.5237 3.66375 13.5187 3.66392 13.5185C3.70411 13.4471 3.70411 13.1499 3.70411 13.0071C3.70411 12.7192 3.63205 12.3715 3.50576 12.0484C3.44028 12.0112 3.38727 11.9549 3.3547 11.8868C3.13538 11.4276 2.83707 11.131 2.59489 11.131C2.34716 11.131 2.03395 11.4518 1.8155 11.9286C1.77982 12.0063 1.71728 12.0696 1.64036 12.1075C1.5262 12.4166 1.46349 12.7348 1.46349 13.0069C1.46349 13.1268 1.46349 13.4449 1.50922 13.5197C1.50974 13.5197 1.51997 13.526 1.54872 13.5331C1.58614 13.5187 1.62633 13.5112 1.66652 13.5112H2.02893C2.19783 13.5112 2.33902 13.6398 2.356 13.8069L2.35773 13.8272C2.35773 14.0214 2.21013 14.1694 2.02893 14.1694H1.66652C1.59463 14.1694 1.52516 14.1453 1.46799 14.1016C1.26098 14.0626 1.11511 13.9713 1.02278 13.8227C0.91087 13.6431 0.890429 13.4071 0.890429 13.0069C0.890429 12.656 0.971503 12.2516 1.11875 11.8655C1.0971 11.7829 1.10437 11.6966 1.14041 11.6188C1.29372 11.2834 1.48878 10.9962 1.70429 10.7885C1.82278 10.6743 1.95011 10.5825 2.08333 10.5155C2.13322 10.3987 2.21984 10.3029 2.32568 10.2425C2.33123 9.78079 2.40225 9.38218 2.53356 9.05355C1.03023 9.81613 0 11.3758 0 13.1769C0 15.4785 1.68159 15.5911 3.88289 15.5911C4.12317 15.5911 4.36916 15.5897 4.62053 15.5897H9.37878C9.6298 15.5897 9.87579 15.5911 10.1161 15.5911C12.3177 15.5911 14 15.4785 14 13.1769C13.9998 11.3567 12.9476 9.78339 11.4186 9.02999Z" fill="#0177C8"/>
<path d="M7.00126 9.18008C9.12928 9.18008 10.8542 5.98025 10.8542 3.8524C10.8542 1.7249 9.12928 0 7.00126 0C4.87358 0 3.14868 1.7249 3.14868 3.8524C3.14868 5.98025 4.87358 9.18008 7.00126 9.18008Z" fill="#0177C8"/>
<path d="M11.4211 11.8921C11.7081 11.8921 11.9408 11.6594 11.9408 11.3724C11.9408 11.0853 11.7081 10.8527 11.4211 10.8527C11.134 10.8527 10.9014 11.0853 10.9014 11.3724C10.9014 11.6594 11.134 11.8921 11.4211 11.8921Z" fill="#0177C8"/>
</svg>
