<svg width="17" height="16" viewBox="0 0 17 16" fill="none" xmlns="http://www.w3.org/2000/svg">
<path d="M8.49517 1.41073C4.78968 -1.83024 0.0782159 1.01737 0.000958041 4.87777C-0.0187299 5.86161 0.265268 6.81994 0.830575 7.70344H4.49473L5.14645 6.61719C5.3357 6.30181 5.79367 6.29165 5.99363 6.60606L7.3687 8.76686L9.37312 4.53541C9.54792 4.16618 10.0689 4.15446 10.2617 4.5125L11.9799 7.70344H16.1598C19.2561 2.86412 13.1367 -2.64887 8.49517 1.41073Z" fill="#0177C8"/>
<path d="M11.244 8.4375L9.85166 5.85181L7.88283 10.0082C7.71533 10.3618 7.22267 10.3925 7.01261 10.0624L5.58598 7.82057L5.20374 8.45762C5.11373 8.60762 4.95165 8.69939 4.77672 8.69939H1.61841C1.71741 8.80301 1.18976 8.27641 8.14392 15.1946C8.33815 15.3878 8.65212 15.3879 8.84638 15.1946C15.6935 8.38285 15.2731 8.80281 15.3719 8.69939H11.6824C11.4992 8.69942 11.3308 8.59883 11.244 8.4375Z" fill="#0177C8"/>
</svg>
