<svg width="31" height="31" viewBox="0 0 31 31" fill="none" xmlns="http://www.w3.org/2000/svg">
<circle opacity="0.8" cx="15.5" cy="15.5" r="15.5" fill="#898D9E"/>
<path d="M15.3548 22.271C14.671 22.271 14.1161 22.1161 13.6903 21.8065C13.2774 21.4968 13.0129 21.071 12.8968 20.529C12.7935 19.9742 12.871 19.3484 13.129 18.6516L14.5419 14.5871C14.7226 14.0839 14.7548 13.6839 14.6387 13.3871C14.5226 13.0903 14.2903 12.9419 13.9419 12.9419C13.671 12.9419 13.4065 13.0452 13.1484 13.2516C12.9032 13.4452 12.6645 13.7548 12.4323 14.1806L12.0839 14.8581H11.329L11.7548 14.0258C12.1806 13.2258 12.671 12.6387 13.2258 12.2645C13.7806 11.8903 14.4323 11.7032 15.1806 11.7032C15.8645 11.7032 16.4129 11.8581 16.8258 12.1677C17.2516 12.4774 17.5161 12.9097 17.6194 13.4645C17.7355 14.0065 17.6645 14.6258 17.4065 15.3226L15.9935 19.3871C15.8129 19.8903 15.7806 20.2968 15.8968 20.6065C16.0129 20.9032 16.2452 21.0516 16.5935 21.0516C17.1613 21.0516 17.6645 20.6323 18.1032 19.7935L18.4516 19.1355H19.2065L18.7613 19.9484C18.3484 20.7484 17.8645 21.3355 17.3097 21.7097C16.7548 22.0839 16.1032 22.271 15.3548 22.271ZM16.7484 10.1161C16.2452 10.1161 15.8387 9.98065 15.529 9.70968C15.2323 9.42581 15.0839 9.06452 15.0839 8.62581C15.0839 8.12258 15.2645 7.70968 15.6258 7.3871C16 7.05161 16.4581 6.88387 17 6.88387C17.4903 6.88387 17.8839 7.01935 18.1806 7.29032C18.4903 7.56129 18.6452 7.92258 18.6452 8.37419C18.6452 8.86452 18.4581 9.27742 18.0839 9.6129C17.7226 9.94839 17.2774 10.1161 16.7484 10.1161Z" fill="white"/>
</svg>
