<svg width="28" height="33" viewBox="0 0 28 33" fill="none" xmlns="http://www.w3.org/2000/svg">
<path d="M13.7149 0C10.0775 0 6.58906 1.44496 4.01701 4.01701C1.44496 6.58906 0 10.0775 0 13.7149C0 24.5497 12.6292 31.5672 13.1663 31.8643C13.3401 31.9647 13.5372 32.0175 13.7378 32.0175C13.9384 32.0175 14.1355 31.9647 14.3092 31.8643C14.8578 31.5672 27.4299 24.5497 27.4299 13.7149C27.4299 10.0775 25.9849 6.58906 23.4128 4.01701C20.8408 1.44496 17.3524 0 13.7149 0ZM13.7149 21.7153C12.1326 21.7153 10.5858 21.2461 9.27016 20.367C7.9545 19.4879 6.92907 18.2384 6.32355 16.7765C5.71802 15.3147 5.55958 13.7061 5.86828 12.1541C6.17697 10.6022 6.93894 9.17668 8.05781 8.05781C9.17668 6.93894 10.6022 6.17697 12.1541 5.86828C13.7061 5.55958 15.3147 5.71802 16.7765 6.32355C18.2384 6.92907 19.4879 7.9545 20.367 9.27016C21.2461 10.5858 21.7153 12.1326 21.7153 13.7149C21.7153 15.8368 20.8724 17.8717 19.372 19.372C17.8717 20.8724 15.8368 21.7153 13.7149 21.7153Z" fill="#0177C8"/>
<path d="M17.1434 12.572H14.8576V10.2862C14.8576 9.9831 14.7372 9.6924 14.5229 9.47806C14.3085 9.26372 14.0178 9.14331 13.7147 9.14331C13.4116 9.14331 13.1209 9.26372 12.9065 9.47806C12.6922 9.6924 12.5718 9.9831 12.5718 10.2862V12.572H10.286C9.98286 12.572 9.69215 12.6925 9.47782 12.9068C9.26348 13.1211 9.14307 13.4118 9.14307 13.715C9.14307 14.0181 9.26348 14.3088 9.47782 14.5231C9.69215 14.7374 9.98286 14.8579 10.286 14.8579H12.5718V17.1437C12.5718 17.4468 12.6922 17.7375 12.9065 17.9518C13.1209 18.1662 13.4116 18.2866 13.7147 18.2866C14.0178 18.2866 14.3085 18.1662 14.5229 17.9518C14.7372 17.7375 14.8576 17.4468 14.8576 17.1437V14.8579H17.1434C17.4466 14.8579 17.7373 14.7374 17.9516 14.5231C18.1659 14.3088 18.2864 14.0181 18.2864 13.715C18.2864 13.4118 18.1659 13.1211 17.9516 12.9068C17.7373 12.6925 17.4466 12.572 17.1434 12.572Z" fill="#0177C8"/>
</svg>
