<svg width="20" height="24" viewBox="0 0 20 24" fill="none" xmlns="http://www.w3.org/2000/svg">
<path d="M19.0176 19.7912L17.9459 6.28609C17.8794 5.41595 17.1432 4.73462 16.2708 4.73462H14.1537V7.87135C14.1537 8.25981 13.8393 8.57424 13.4508 8.57424C13.0628 8.57424 12.7479 8.25981 12.7479 7.87135V4.73462H6.28147V7.87135C6.28147 8.25981 5.96656 8.57424 5.57858 8.57424C5.19012 8.57424 4.87569 8.25981 4.87569 7.87135V4.73462H2.75862C1.88614 4.73462 1.14997 5.41595 1.08345 6.28421L0.0113263 19.7931C-0.0715956 20.875 0.303732 21.9519 1.04079 22.7475C1.7779 23.5431 2.82284 24 3.90762 24H15.1218C16.2066 24 17.2515 23.5431 17.9886 22.7475C18.7257 21.9518 19.101 20.875 19.0176 19.7912ZM12.6814 12.9137L9.04611 16.549C8.90881 16.6863 8.72886 16.7552 8.54895 16.7552C8.369 16.7552 8.18909 16.6863 8.05179 16.549L6.34803 14.8453C6.07344 14.5707 6.07344 14.126 6.34803 13.8514C6.62262 13.5768 7.06779 13.5768 7.34192 13.8514L8.549 15.058L11.6876 11.9194C11.9617 11.6453 12.4069 11.6453 12.6815 11.9194C12.956 12.194 12.956 12.6392 12.6814 12.9137Z" fill="#BDBDBD"/>
<path d="M9.51447 0C6.95646 0 4.87549 2.08144 4.87549 4.63945V4.73456H6.28127V4.63945C6.28127 2.85647 7.73154 1.40573 9.51452 1.40573C11.2975 1.40573 12.7478 2.85647 12.7478 4.63945V4.73456H14.1535V4.63945C14.1535 2.08144 12.0725 0 9.51447 0Z" fill="#BDBDBD"/>
</svg>
