<svg width="30" height="33" viewBox="0 0 30 33" fill="none" xmlns="http://www.w3.org/2000/svg">
<path d="M11.808 23C11.624 23 11.472 22.944 11.352 22.832C11.232 22.712 11.172 22.564 11.172 22.388V15.956L11.328 16.172L10.212 16.952C10.116 17.032 10 17.072 9.864 17.072C9.704 17.072 9.56 17.012 9.432 16.892C9.312 16.764 9.252 16.616 9.252 16.448C9.252 16.24 9.356 16.068 9.564 15.932L11.388 14.72C11.46 14.672 11.536 14.64 11.616 14.624C11.704 14.608 11.784 14.6 11.856 14.6C12.04 14.6 12.188 14.66 12.3 14.78C12.412 14.892 12.468 15.036 12.468 15.212V22.388C12.468 22.564 12.404 22.712 12.276 22.832C12.156 22.944 12 23 11.808 23ZM16.4618 23.084C16.1498 23.084 15.8258 23.036 15.4898 22.94C15.1618 22.844 14.8818 22.7 14.6498 22.508C14.5618 22.436 14.4938 22.344 14.4458 22.232C14.3978 22.12 14.3738 22.012 14.3738 21.908C14.3738 21.796 14.4218 21.688 14.5178 21.584C14.6218 21.472 14.7618 21.416 14.9378 21.416C15.0658 21.416 15.2138 21.48 15.3818 21.608C15.5418 21.712 15.7098 21.8 15.8858 21.872C16.0698 21.944 16.2578 21.98 16.4498 21.98C16.8658 21.98 17.2258 21.904 17.5298 21.752C17.8338 21.6 18.0658 21.388 18.2258 21.116C18.3938 20.836 18.4778 20.512 18.4778 20.144C18.4778 19.8 18.4018 19.508 18.2498 19.268C18.0978 19.02 17.8898 18.828 17.6258 18.692C17.3698 18.556 17.0818 18.488 16.7617 18.488C16.4978 18.488 16.2658 18.532 16.0658 18.62C15.8658 18.7 15.6858 18.784 15.5258 18.872C15.3658 18.952 15.2178 18.992 15.0818 18.992C14.8738 18.992 14.7178 18.948 14.6138 18.86C14.5098 18.764 14.4418 18.652 14.4098 18.524C14.3858 18.388 14.3818 18.264 14.3978 18.152L14.8178 15.14C14.8418 15.004 14.9058 14.892 15.0098 14.804C15.1218 14.708 15.2578 14.66 15.4178 14.66H18.9338C19.0938 14.66 19.2258 14.716 19.3298 14.828C19.4418 14.932 19.4978 15.064 19.4978 15.224C19.4978 15.384 19.4418 15.516 19.3298 15.62C19.2258 15.724 19.0938 15.776 18.9338 15.776H15.7178L15.8498 15.668L15.4658 18.248L15.2858 17.888C15.3578 17.808 15.4778 17.732 15.6458 17.66C15.8218 17.58 16.0178 17.516 16.2338 17.468C16.4578 17.412 16.6818 17.384 16.9058 17.384C17.4338 17.384 17.9058 17.504 18.3218 17.744C18.7458 17.976 19.0778 18.3 19.3178 18.716C19.5578 19.132 19.6778 19.604 19.6778 20.132C19.6778 20.724 19.5458 21.244 19.2818 21.692C19.0178 22.132 18.6458 22.476 18.1658 22.724C17.6858 22.964 17.1178 23.084 16.4618 23.084Z" fill="#898D9E"/>
<path d="M3.15661 8.98601C3.54577 8.50619 4.24837 8.4284 4.73307 8.81146C5.21778 9.19453 5.30444 9.89609 4.92753 10.3856C3.1889 12.5719 2.24717 15.2854 2.25761 18.0788C2.25613 24.7461 7.52089 30.2242 14.183 30.4875C20.8451 30.7508 26.5257 25.7052 27.0504 19.0585C27.575 12.4119 22.7564 6.53753 16.1355 5.7523L17.6643 7.06328C18.1189 7.47307 18.1641 8.17055 17.7661 8.63557C17.3682 9.10059 16.6721 9.16367 16.197 8.77777L12.2466 5.39169C11.9962 5.17725 11.8521 4.86408 11.8521 4.53444C11.8521 4.2048 11.9962 3.89163 12.2466 3.6772L16.197 0.291116C16.5016 0.0165099 16.9313 -0.0712089 17.3192 0.0619977C17.7071 0.195204 17.9923 0.528368 18.064 0.93221C18.1357 1.33605 17.9826 1.747 17.6643 2.0056L15.9605 3.46557C23.8667 4.16187 29.7862 11.0187 29.321 18.9419C28.8559 26.8651 22.1749 32.9822 14.2415 32.7487C6.30811 32.5152 -0.00153542 26.0156 0.000219345 18.0788C-0.0118465 14.7772 1.10146 11.57 3.15661 8.98601Z" fill="#898D9E"/>
<path d="M10.4514 8.65451C10.2566 8.88195 9.97935 9.02264 9.68076 9.04561C9.38217 9.06858 9.08669 8.97194 8.85938 8.77697L4.90895 5.39089C4.65858 5.17646 4.51448 4.86329 4.51448 4.53365C4.51448 4.20401 4.65858 3.89084 4.90895 3.6764L8.85938 0.290323C9.16404 0.0157164 9.59369 -0.0720023 9.98162 0.0612042C10.3695 0.194411 10.6547 0.527574 10.7264 0.931417C10.7981 1.33526 10.645 1.74621 10.3267 2.00481L7.37797 4.53478L10.3278 7.06362C10.8011 7.4689 10.8564 8.181 10.4514 8.65451Z" fill="#898D9E"/>
</svg>
