<svg width="21" height="21" viewBox="0 0 21 21" fill="none" xmlns="http://www.w3.org/2000/svg">
<path d="M0 15.8693C0.382072 18.7406 2.83408 20.9532 5.80305 20.9532C8.77202 20.9532 11.2236 18.7381 11.6057 15.8693H0Z" fill="#BDBDBD"/>
<path d="M11.6057 14.3036C11.2236 11.4323 8.77161 9.22009 5.80305 9.22009C2.83449 9.22009 0.382483 11.4339 0 14.3036H11.6057Z" fill="#BDBDBD"/>
<path d="M20.576 13.5579L18.6841 9.07166C16.8648 9.17651 15.0775 9.59479 13.4013 10.308C12.9177 10.5125 12.4477 10.7391 11.9915 10.9877C12.8197 12.2421 13.2485 13.7169 13.2218 15.2187C13.1951 16.7205 12.7141 18.1791 11.8418 19.4035C12.5917 20.1671 13.5549 20.6876 14.6057 20.897C15.6566 21.1064 16.7464 20.9951 17.7329 20.5775C20.4526 19.4261 21.7275 16.2832 20.576 13.5579Z" fill="#BDBDBD"/>
<path d="M16.2382 3.27276C15.0891 0.547867 11.9523 -0.727825 9.23261 0.42399C6.51286 1.57539 5.23998 4.71827 6.38948 7.44358L6.49148 7.686C8.1804 7.84297 9.76353 8.57553 10.9743 9.76034C11.5623 9.42768 12.169 9.12898 12.7913 8.86571C14.461 8.1553 16.2321 7.71084 18.04 7.54859L16.2382 3.27276ZM14.5187 4.9004C14.4241 4.94007 14.3226 4.96078 14.22 4.96133C14.1173 4.96188 14.0156 4.94226 13.9206 4.9036C13.8256 4.86494 13.7391 4.80799 13.6662 4.736C13.5932 4.66402 13.5352 4.57841 13.4954 4.48406C13.3437 4.12003 13.1096 3.79594 12.8115 3.53714C12.5133 3.27833 12.1592 3.09182 11.7767 2.99219C11.5777 2.93819 11.4082 2.80792 11.3051 2.62979C11.202 2.45165 11.1737 2.24009 11.2264 2.04123C11.279 1.84236 11.4084 1.67231 11.5862 1.56815C11.764 1.46399 11.9759 1.43415 12.1757 1.48515C12.7897 1.64496 13.3584 1.94423 13.8373 2.35957C14.3162 2.77492 14.6922 3.29509 14.9361 3.87943C14.976 3.97381 14.9968 4.07508 14.9974 4.17748C14.9979 4.27987 14.9783 4.38137 14.9395 4.47619C14.9008 4.571 14.8436 4.65727 14.7714 4.73006C14.6992 4.80285 14.6133 4.86073 14.5187 4.9004Z" fill="#BDBDBD"/>
</svg>
