<svg width="274" height="219" viewBox="0 0 274 219" fill="none" xmlns="http://www.w3.org/2000/svg">
<rect width="5.45867" height="6.37001" rx="1" transform="matrix(0.98191 -0.189347 0.189251 0.981929 140.747 32.4476)" fill="#001871"/>
<rect width="5.45896" height="6.36967" rx="1" transform="matrix(0.873803 0.486281 -0.486085 0.873912 226.51 168.572)" fill="#001871"/>
<rect width="5.45896" height="6.36967" rx="1" transform="matrix(0.873803 0.486281 -0.486085 0.873912 73.3066 210.779)" fill="#001871"/>
<rect x="104.381" y="50.3415" width="2.51856" height="2.9391" rx="1" fill="#001871"/>
<rect width="4.63856" height="5.4125" rx="1" transform="matrix(0.890958 0.454086 -0.453895 0.891055 222.744 29.5461)" fill="#001871"/>
<rect x="215.573" y="53.3146" width="2.51856" height="2.9391" rx="1" fill="#001871"/>
<rect x="208.142" y="163.729" width="2.51856" height="2.9391" rx="1" fill="#001871"/>
<rect x="228.31" y="121.262" width="2.51856" height="2.9391" rx="1" fill="#001871"/>
<rect x="256.968" y="83.0419" width="2.51856" height="2.9391" rx="1" fill="#001871"/>
<rect x="233.615" y="150.989" width="2.51856" height="2.9391" rx="1" fill="#001871"/>
<rect x="181.753" y="207.068" width="2.51856" height="2.9391" rx="1" fill="#001871"/>
<rect width="3.59642" height="4.1966" rx="1" transform="matrix(0.922838 -0.385187 0.385014 0.922911 75.3389 39.7462)" fill="#001871"/>
<rect width="3.59636" height="4.19666" rx="1" transform="matrix(0.954493 0.298234 -0.298091 0.954538 7.02832 189.69)" fill="#001871"/>
<rect width="1.36198" height="1.58933" rx="0.680992" transform="matrix(0.954493 0.298234 -0.298091 0.954538 64.2678 64.993)" fill="#001871"/>
<rect width="1.36198" height="1.58933" rx="0.680992" transform="matrix(0.954493 0.298234 -0.298091 0.954538 203.31 73.4863)" fill="#001871"/>
<rect width="1.36198" height="1.58933" rx="0.680992" transform="matrix(0.954493 0.298234 -0.298091 0.954538 259.562 97.9049)" fill="#001871"/>
<rect width="1.36198" height="1.58933" rx="0.680992" transform="matrix(0.954493 0.298234 -0.298091 0.954538 75.5339 164.118)" fill="#001871"/>
<rect width="1.36198" height="1.58933" rx="0.680992" transform="matrix(0.954493 0.298234 -0.298091 0.954538 26.0571 15.0942)" fill="#001871"/>
<rect width="2.58629" height="3.01799" rx="1" transform="matrix(0.954493 0.298234 -0.298091 0.954538 36.0337 117.775)" fill="#001871"/>
<rect width="2.58629" height="3.01799" rx="1" transform="matrix(0.954493 0.298234 -0.298091 0.954538 39.3711 156.173)" fill="#001871"/>
<rect width="2.58629" height="3.01799" rx="1" transform="matrix(0.954493 0.298234 -0.298091 0.954538 115.628 193.199)" fill="#001871"/>
<rect width="3.59636" height="4.19666" rx="1" transform="matrix(0.954493 0.298234 -0.298091 0.954538 159.507 14.0327)" fill="#001871"/>
<rect width="4.63321" height="5.40658" rx="1" transform="matrix(0.954493 0.298234 -0.298091 0.954538 49.4817 50.1292)" fill="#001871"/>
<rect width="4.63432" height="5.40529" rx="1" transform="matrix(-0.0462226 -0.998931 0.99893 -0.0462469 134.268 4.87933)" fill="#001871"/>
<rect width="7.14529" height="8.33619" rx="1" transform="matrix(-0.710445 0.703753 -0.703565 -0.710631 10.9414 95.3396)" fill="#001871"/>
<rect width="7.14444" height="8.33719" rx="1" transform="matrix(0.979084 -0.203456 0.203353 0.979106 264.396 199.091)" fill="#001871"/>
</svg>
