<svg width="16" height="18" viewBox="0 0 16 18" fill="none" xmlns="http://www.w3.org/2000/svg">
<path d="M7.39505 8.67068C8.58624 8.67068 9.61758 8.24345 10.4605 7.40053C11.3032 6.55774 11.7305 5.52654 11.7305 4.33521C11.7305 3.14429 11.3033 2.11295 10.4604 1.26988C9.61745 0.427231 8.58611 0 7.39505 0C6.20372 0 5.17252 0.427231 4.32973 1.27002C3.48694 2.11281 3.05957 3.14415 3.05957 4.33521C3.05957 5.52654 3.48694 6.55788 4.32973 7.40067C5.17279 8.24332 6.20413 8.67068 7.39505 8.67068ZM5.0757 2.01585C5.72238 1.36917 6.48099 1.05482 7.39505 1.05482C8.30898 1.05482 9.06772 1.36917 9.71454 2.01585C10.3612 2.66267 10.6757 3.42142 10.6757 4.33521C10.6757 5.24927 10.3612 6.00787 9.71454 6.65469C9.06772 7.30151 8.30898 7.61586 7.39505 7.61586C6.48126 7.61586 5.72266 7.30138 5.0757 6.65469C4.42888 6.00801 4.1144 5.24927 4.1144 4.33521C4.1144 3.42142 4.42888 2.66267 5.0757 2.01585Z" fill="#0177C8"/>
<path d="M14.9811 13.8411C14.9568 13.4904 14.9076 13.1078 14.8353 12.7038C14.7622 12.2967 14.6681 11.9119 14.5555 11.5602C14.4391 11.1967 14.281 10.8377 14.0853 10.4937C13.8825 10.1367 13.6441 9.82574 13.3765 9.5699C13.0968 9.30225 12.7543 9.08705 12.3582 8.93008C11.9636 8.77394 11.5262 8.69484 11.0583 8.69484C10.8745 8.69484 10.6968 8.77023 10.3537 8.99367C10.1424 9.13141 9.89539 9.29071 9.61963 9.4669C9.38383 9.61714 9.06441 9.7579 8.66986 9.88535C8.28493 10.0099 7.89409 10.0731 7.50819 10.0731C7.12257 10.0731 6.73174 10.0099 6.34653 9.88535C5.95239 9.75804 5.63283 9.61728 5.39745 9.46704C5.1243 9.2925 4.87711 9.13319 4.66273 8.99353C4.31982 8.7701 4.14212 8.6947 3.95837 8.6947C3.49036 8.6947 3.0531 8.77394 2.65855 8.93022C2.26277 9.08691 1.92014 9.30211 1.64012 9.57004C1.3726 9.82602 1.1342 10.1368 0.931503 10.4937C0.736084 10.8377 0.577881 11.1966 0.461426 11.5603C0.348953 11.912 0.254883 12.2967 0.181824 12.7038C0.109314 13.1072 0.0602875 13.49 0.0359802 13.8415C0.012085 14.1853 0 14.543 0 14.9044C0 15.8441 0.298691 16.6047 0.887695 17.1657C1.46942 17.7193 2.23901 18 3.17519 18H11.8423C12.7782 18 13.5478 17.7193 14.1297 17.1657C14.7188 16.6051 15.0175 15.8442 15.0175 14.9043C15.0173 14.5416 15.0051 14.1839 14.9811 13.8411ZM13.4024 16.4015C13.018 16.7673 12.5077 16.9452 11.8422 16.9452H3.17519C2.50955 16.9452 1.99924 16.7673 1.61499 16.4016C1.23802 16.0428 1.05482 15.5529 1.05482 14.9044C1.05482 14.5672 1.06595 14.2341 1.0882 13.9144C1.10989 13.6008 1.15425 13.2562 1.22003 12.8901C1.28499 12.5285 1.36766 12.1892 1.46599 11.882C1.56033 11.5874 1.68901 11.2957 1.84859 11.0147C2.00088 10.7469 2.17612 10.5172 2.36948 10.3321C2.55034 10.1589 2.77831 10.0172 3.04692 9.91089C3.29535 9.81256 3.57454 9.75873 3.87762 9.75063C3.91457 9.77026 3.98035 9.80775 4.08691 9.87724C4.30376 10.0186 4.5537 10.1798 4.83 10.3562C5.14146 10.5548 5.54274 10.7342 6.02216 10.8889C6.51228 11.0474 7.01216 11.1279 7.50833 11.1279C8.0045 11.1279 8.50452 11.0474 8.99437 10.8891C9.4742 10.734 9.87534 10.5548 10.1872 10.356C10.47 10.1752 10.7129 10.0187 10.9297 9.87724C11.0363 9.80789 11.1021 9.77026 11.139 9.75063C11.4423 9.75873 11.7215 9.81256 11.97 9.91089C12.2385 10.0172 12.4665 10.159 12.6473 10.3321C12.8407 10.5171 13.0159 10.7468 13.1682 11.0149C13.3279 11.2957 13.4567 11.5875 13.5509 11.8818C13.6494 12.1895 13.7322 12.5287 13.797 12.89C13.8627 13.2568 13.9072 13.6015 13.9289 13.9146V13.9149C13.9513 14.2333 13.9625 14.5662 13.9627 14.9044C13.9625 15.5531 13.7793 16.0428 13.4024 16.4015Z" fill="#0177C8"/>
</svg>
